<?xml version="1.0" encoding="utf-8"?>
<!-- Generator: Adobe Illustrator 22.0.1, SVG Export Plug-In . SVG Version: 6.00 Build 0)  -->
<svg version="1.1" xmlns="http://www.w3.org/2000/svg" xmlns:xlink="http://www.w3.org/1999/xlink" x="0px" y="0px"
	 viewBox="0 0 465 464.7" style="enable-background:new 0 0 465 464.7;" xml:space="preserve">
<style type="text/css">
	.st0{fill:none;stroke:#000000;stroke-width:2;stroke-miterlimit:10;}
	.st1{fill:#F9C319;}
	.st2{fill:#FFFFFF;}
	.st3{fill:#F75219;}
	.st4{fill:#1741DD;}
	.st5{fill:#F73131;}
	.st6{fill:#680000;}
	.st7{fill:none;stroke:#000000;stroke-width:4;stroke-miterlimit:10;}
	.st8{fill:#FCD132;}
	.st9{fill:none;stroke:#FFFFFF;stroke-width:2.2388;stroke-miterlimit:10;}
	.st10{font-family:'Averta-Regular';}
	.st11{font-size:25.1553px;}
</style>
<g id="Personal_Character">
</g>
<g id="Sketch">
	<g>
		
			<rect x="62.1" y="61.6" transform="matrix(0.8709 0.4915 -0.4915 0.8709 144.164 -84.3505)" class="st5" width="341.1" height="341.1"/>
		<g>
			<g>
				<g>
					<path class="st2" d="M194.7,64.4c-0.9,1-3.1,1.3-4.7-0.3c0.7,2.2-0.6,3.9-2,4.3c-2.2,0.5-3.9-0.4-4.5-2.6
						c-0.2-0.8,0-2.3,0.4-3.7c0-0.1,0.1-0.2,0.1-0.3c0.3-1.7,0.3-3.8-0.5-5.4l-0.6-1.1l0,0l-0.5-0.3l-4.9,8.7l0,0l0.3,2.3l-4.4-2.5
						l2.1-0.9l0,0l4.9-8.7l-0.4-0.3l0,0l-1.3,0c-1.8,0.1-3.5,1.2-4.9,2.3c-0.1,0.1-0.2,0.2-0.3,0.2c-1.1,1-2.2,2-3,2.2
						c-2.1,0.7-3.8-0.4-4.5-2.5c-0.4-1.3,0.4-3.4,2.6-3.9c-2.2-0.5-3.1-2.5-2.7-3.8c0.6-2.1,2.3-3.2,4.5-2.6c0.8,0.2,2,1.2,3,2.2
						c0.1,0.1,0.2,0.2,0.3,0.2c1.3,1.2,3.1,2.2,4.9,2.2l1.3,0l0.1,0l0-0.1l-0.7-1.1c-1-1.5-2.8-2.5-4.5-3c-0.1,0-0.2-0.1-0.3-0.1
						c-1.4-0.4-2.8-0.9-3.4-1.5c-1.6-1.5-1.6-3.5-0.1-5.2c0.9-1,3.1-1.3,4.7,0.3c-0.7-2.2,0.6-3.9,2-4.3c2.2-0.5,3.9,0.4,4.5,2.6
						c0.2,0.8,0,2.3-0.4,3.7c0,0.1-0.1,0.2-0.1,0.4c-0.3,1.7-0.3,3.8,0.5,5.4l0.6,1.1l0,0l0,0l0.6-1.2c0.8-1.6,0.8-3.6,0.4-5.4
						c0-0.1-0.1-0.2-0.1-0.3c-0.4-1.4-0.6-2.9-0.4-3.7c0.5-2.2,2.3-3.1,4.4-2.7c1.4,0.3,2.7,2,2,4.2c1.5-1.7,3.7-1.4,4.7-0.4
						c1.5,1.6,1.6,3.6,0,5.2c-0.6,0.6-2,1.1-3.4,1.5c-0.1,0-0.2,0.1-0.3,0.1c-1.7,0.6-3.4,1.6-4.4,3.1l-0.7,1.1l0.1,0l0,0l1.3,0
						c1.8-0.1,3.5-1.2,4.9-2.3c0.1-0.1,0.2-0.2,0.3-0.2c1.1-1,2.2-2,3-2.2c2.1-0.7,3.8,0.4,4.5,2.5c0.4,1.3-0.4,3.4-2.6,3.9
						c2.2,0.5,3.1,2.5,2.7,3.8c-0.6,2.1-2.3,3.2-4.5,2.6c-0.8-0.2-2-1.2-3-2.2c-0.1-0.1-0.2-0.2-0.3-0.2c-1.3-1.2-3.1-2.2-4.9-2.2
						l-1.3,0l-0.1,0l0,0.1l0.7,1.1c1,1.5,2.8,2.5,4.5,3c0.1,0,0.2,0.1,0.3,0.1c1.4,0.4,2.8,0.9,3.4,1.5
						C196.2,60.7,196.2,62.7,194.7,64.4z"/>
				</g>
			</g>
			<polygon class="st2" points="180,50.3 180.1,50.3 180,50.3 180,50.3 			"/>
			<polygon class="st2" points="185.7,53.5 185.7,53.5 185.6,53.4 185.7,53.4 			"/>
		</g>
		<g>
			<g>
				<g>
					<path class="st2" d="M293.5,429c-0.9,1-3.1,1.3-4.7-0.3c0.7,2.2-0.6,3.9-2,4.3c-2.2,0.5-3.9-0.4-4.5-2.6
						c-0.2-0.8,0-2.3,0.4-3.7c0-0.1,0.1-0.2,0.1-0.3c0.3-1.7,0.3-3.8-0.5-5.4l-0.6-1.1l0,0l-0.5-0.3l-4.9,8.7l0,0l0.3,2.3l-4.4-2.5
						l2.1-0.9l0,0l4.9-8.7l-0.4-0.3l0,0l-1.3,0c-1.8,0.1-3.5,1.2-4.9,2.3c-0.1,0.1-0.2,0.2-0.3,0.2c-1.1,1-2.2,2-3,2.2
						c-2.1,0.7-3.8-0.4-4.5-2.5c-0.4-1.3,0.4-3.4,2.6-3.9c-2.2-0.5-3.1-2.5-2.7-3.8c0.6-2.1,2.3-3.2,4.5-2.6c0.8,0.2,2,1.2,3,2.2
						c0.1,0.1,0.2,0.2,0.3,0.2c1.3,1.2,3.1,2.2,4.9,2.2l1.3,0l0.1,0l0-0.1l-0.7-1.1c-1-1.5-2.8-2.5-4.5-3c-0.1,0-0.2-0.1-0.3-0.1
						c-1.4-0.4-2.8-0.9-3.4-1.5c-1.6-1.5-1.6-3.5-0.1-5.2c0.9-1,3.1-1.3,4.7,0.3c-0.7-2.2,0.6-3.9,2-4.3c2.2-0.5,3.9,0.4,4.5,2.6
						c0.2,0.8,0,2.3-0.4,3.7c0,0.1-0.1,0.2-0.1,0.4c-0.3,1.7-0.3,3.8,0.5,5.4l0.6,1.1l0,0l0,0l0.6-1.2c0.8-1.6,0.8-3.6,0.4-5.4
						c0-0.1-0.1-0.2-0.1-0.3c-0.4-1.4-0.6-2.9-0.4-3.7c0.5-2.2,2.3-3.1,4.4-2.7c1.4,0.3,2.7,2,2,4.2c1.5-1.7,3.7-1.4,4.7-0.4
						c1.5,1.6,1.6,3.6,0,5.2c-0.6,0.6-2,1.1-3.4,1.5c-0.1,0-0.2,0.1-0.3,0.1c-1.7,0.6-3.4,1.6-4.4,3.1l-0.7,1.1l0.1,0l0,0l1.3,0
						c1.8-0.1,3.5-1.2,4.9-2.3c0.1-0.1,0.2-0.2,0.3-0.2c1.1-1,2.2-2,3-2.2c2.1-0.7,3.8,0.4,4.5,2.5c0.4,1.3-0.4,3.4-2.6,3.9
						c2.2,0.5,3.1,2.5,2.7,3.8c-0.6,2.1-2.3,3.2-4.5,2.6c-0.8-0.2-2-1.2-3-2.2c-0.1-0.1-0.2-0.2-0.3-0.2c-1.3-1.2-3.1-2.2-4.9-2.2
						l-1.3,0l-0.1,0l0,0.1l0.7,1.1c1,1.5,2.8,2.5,4.5,3c0.1,0,0.2,0.1,0.3,0.1c1.4,0.4,2.8,0.9,3.4,1.5
						C295,425.4,295,427.4,293.5,429z"/>
				</g>
			</g>
			<polygon class="st2" points="278.9,414.9 278.9,415 278.8,415 278.8,415 			"/>
			<polygon class="st2" points="284.5,418.2 284.5,418.2 284.4,418.1 284.5,418.1 			"/>
		</g>
		<g>
			<polygon class="st2" points="126.1,152.5 120.8,166.8 132.5,175.7 118.8,170.2 109.3,182.2 115.8,168.5 102.9,158.9 117.8,165.1 
							"/>
			<polygon class="st2" points="129.7,164 119.8,168.5 121,179.4 117.2,169.1 105.7,170.7 117,166.9 114.3,155.3 119.1,165.9 			"/>
		</g>
		<g>
			<polygon class="st2" points="344.7,275.9 339.4,290.2 351.2,299.1 337.4,293.6 327.9,305.6 334.5,291.9 321.5,282.3 336.4,288.5 
							"/>
			<polygon class="st2" points="348.3,287.4 338.5,291.9 339.7,302.7 335.9,292.5 324.3,294.1 335.6,290.3 333,278.7 337.7,289.3 
							"/>
		</g>
		<g>
			<path class="st2" d="M250.5,159.3l-29.1,51.6l2.9,7.4l-33.4-18.8l8.7-1.4l19.9-35.3l-12.1-3.7l0.9-1.6L250.5,159.3z"/>
			<path class="st2" d="M257.9,187.4c6.1-10.9,20.5-12.9,31.4-6.8c6.4,3.6,10.5,8.9,11.4,17.2c0.5,5.1-0.4,11.8-5.9,21.9
				c-6.2,11.3-21.9,27-40.1,16.8c-8.3-4.7-10.5-12.8-10.5-12.8s2.3,2.4,5.8,4.3c11.4,6.5,21.2,0.2,27.4-10.6l-0.4-0.2
				c0,0-4.6,3.4-11.8-0.7C253.8,210,251.7,198.4,257.9,187.4z M272.5,195.2c-5.1,9.1-6.4,18-3,19.9c3.4,1.9,10.3-3.8,15.4-12.9
				c5.1-9,6.4-17.8,3-19.7C284.5,180.6,277.6,186.3,272.5,195.2z"/>
			<path class="st2" d="M160.8,235.4c6.1-10.9,20.5-12.9,31.4-6.8c6.4,3.6,10.5,8.9,11.4,17.2c0.5,5.1-0.4,11.8-5.9,21.9
				c-6.2,11.3-21.9,27-40.1,16.8c-8.3-4.7-10.5-12.8-10.5-12.8s2.3,2.4,5.8,4.3c11.4,6.5,21.2,0.2,27.4-10.6l-0.4-0.2
				c0,0-4.6,3.4-11.8-0.7C156.7,258.1,154.6,246.5,160.8,235.4z M175.4,243.3c-5.1,9.1-6.4,18-3,19.9c3.4,1.9,10.3-3.8,15.4-12.9
				c5.1-9,6.4-17.8,3-19.7C187.4,228.7,180.5,234.3,175.4,243.3z"/>
			<path class="st2" d="M212.8,264.8c6.1-10.9,20.5-12.9,31.4-6.8c6.4,3.6,10.5,8.9,11.4,17.2c0.5,5.1-0.4,11.8-5.9,21.9
				c-6.2,11.3-21.9,27-40.1,16.8c-8.3-4.7-10.5-12.8-10.5-12.8s2.3,2.4,5.8,4.3c11.4,6.5,21.2,0.2,27.4-10.6l-0.4-0.2
				c0,0-4.6,3.4-11.8-0.7C208.7,287.4,206.6,275.8,212.8,264.8z M227.4,272.6c-5.1,9.1-6.4,18-3,19.9c3.4,1.9,10.3-3.8,15.4-12.9
				c5.1-9,6.4-17.8,3-19.7C239.5,258.1,232.5,263.7,227.4,272.6z"/>
		</g>
		<path class="st9" d="M130.9,143.9l8.9-15.8c20.5-36.4,66.7-49.3,103.1-28.7l152.7,86.2l-46.1,81.7"/>
		<path class="st9" d="M323.7,313l-14.3,25.3c-20.5,36.4-66.7,49.3-103.1,28.7L53.6,280.9l51.5-91.2"/>
		
			<rect x="133.3" y="328.6" transform="matrix(0.8709 0.4915 -0.4915 0.8709 187.7807 -37.0197)" class="st5" width="62.1" height="20.5"/>
		<text transform="matrix(0.8709 0.4915 -0.4915 0.8709 145.2152 338.4952)" class="st2 st10 st11">kid</text>
		
			<rect x="256.1" y="111" transform="matrix(0.8709 0.4915 -0.4915 0.8709 96.6787 -125.4937)" class="st5" width="62.1" height="20.5"/>
		<g>
			<path class="st2" d="M270.5,117.9l3.4-5.9l-1.4-0.8l0.9-1.5l1.4,0.8l2.1-3.6l1.9,0.8l-2.2,3.8l3.5,2l-0.9,1.5l-3.5-2l-3.2,5.7
				c-0.4,0.7-0.6,1.2-0.5,1.6c0,0.4,0.3,0.8,0.8,1c0.6,0.3,1.3,0.5,2.1,0.5l-0.4,1.8c-0.3,0-0.6,0-0.8,0c-0.3,0-0.6-0.1-1-0.2
				c-0.4-0.1-0.8-0.3-1.2-0.5C269.6,121.8,269.3,120.1,270.5,117.9z"/>
			<path class="st2" d="M290.5,120.6c0.3,1.1,0,2.4-0.8,3.9l-3.6,6.4l-1.8-1l3.3-5.9c1.2-2.2,1-3.8-0.8-4.7
				c-1.1-0.6-2.1-0.7-3.1-0.4c-1,0.3-1.8,1.1-2.5,2.3l-3,5.4l-1.8-1l9.1-16.1l1.8,1l-4.1,7.2l0,0c0.4-0.2,0.8-0.3,1.2-0.4
				c0.4-0.1,0.8-0.1,1.3-0.1c0.4,0,0.8,0.1,1.3,0.2c0.4,0.1,0.8,0.3,1.2,0.5C289.5,118.6,290.3,119.5,290.5,120.6z"/>
			<path class="st2" d="M301.3,133.2l-8.2-4.6c-0.4,1.1-0.5,2.1-0.2,3c0.3,1,0.9,1.7,1.9,2.3c0.6,0.4,1.3,0.6,1.9,0.6
				s1.3-0.1,1.9-0.3l0.6,1.8c-0.8,0.4-1.7,0.5-2.6,0.4s-1.9-0.3-2.8-0.9c-0.7-0.4-1.4-1-1.9-1.6c-0.5-0.6-0.9-1.3-1.1-2.1
				s-0.3-1.5-0.1-2.4c0.1-0.8,0.4-1.7,0.8-2.5c0.4-0.8,1-1.5,1.6-2c0.6-0.5,1.3-0.9,2.1-1.1c0.7-0.2,1.5-0.3,2.3-0.2
				c0.8,0.1,1.5,0.3,2.2,0.7c1,0.6,1.7,1.3,2.2,2.2c0.5,0.9,0.7,1.8,0.7,2.9c0,1-0.3,2.1-0.9,3.1C301.6,132.8,301.5,133,301.3,133.2
				z M296.4,125.7c-0.9,0.2-1.7,0.7-2.4,1.5l6.4,3.6c0.4-1,0.4-1.9,0.2-2.7c-0.2-0.8-0.8-1.5-1.6-2
				C298.1,125.6,297.3,125.5,296.4,125.7z"/>
		</g>
	</g>
</g>
</svg>
