<?xml version="1.0" encoding="utf-8"?>
<!-- Generator: Adobe Illustrator 22.0.1, SVG Export Plug-In . SVG Version: 6.00 Build 0)  -->
<svg version="1.1" xmlns="http://www.w3.org/2000/svg" xmlns:xlink="http://www.w3.org/1999/xlink" x="0px" y="0px"
	 viewBox="0 0 312 275.2" style="enable-background:new 0 0 312 275.2;" xml:space="preserve">
<style type="text/css">
	.st0{fill:none;stroke:#000000;stroke-width:2;stroke-miterlimit:10;}
	.st1{fill:#F9C319;}
	.st2{fill:#FFFFFF;}
	.st3{fill:#F75219;}
	.st4{fill:#1741DD;}
	.st5{fill:#F73131;}
	.st6{fill:#FCD132;}
	.st7{fill:#680000;}
	.st8{fill:none;stroke:#000000;stroke-width:4;stroke-miterlimit:10;}
	.st9{fill:none;stroke:#FFFFFF;stroke-width:2.2388;stroke-miterlimit:10;}
</style>
<g id="Personal_Character">
</g>
<g id="Sketch">
	<path d="M309.4,1.9c-0.2-2.9-15.2-2.3-15,0c4.2,54.4-15.9,107.9-47.6,151.5c-15.9,21.9-34.6,41.9-57.9,56
		c-23.1,14-49.5,22.4-76.1,26.8c-31.3,5.2-63.1,5.3-94.7,5.1c11.9-6.8,22.2-15.9,30.6-26.9c1.5-2,0.2-4.5-1.9-5.2
		c-2.5-0.9-5.2,0.4-6.6,2.4c-9.3,12.3-21.7,21.9-35.8,27.9c-5.7,2.4-3.1,9.9,2.7,7.4c0.4-0.2,0.8-0.4,1.2-0.5
		c9.3,6.7,16.3,16.1,20.1,27.2c0.7,2.1,9.9,0.8,10,1c-4.2-12.4-12.4-22.7-23.4-29.7c58.3,0.4,119.4-0.1,172.9-26
		c26-12.6,47.2-31.2,65.2-53.6c17.1-21.4,31.4-45.2,41.5-70.7C306.1,65.1,311.8,33.5,309.4,1.9z"/>
</g>
</svg>
