<?xml version="1.0" encoding="utf-8"?>
<!-- Generator: Adobe Illustrator 22.0.1, SVG Export Plug-In . SVG Version: 6.00 Build 0)  -->
<svg version="1.1" xmlns="http://www.w3.org/2000/svg" xmlns:xlink="http://www.w3.org/1999/xlink" x="0px" y="0px"
	 viewBox="0 0 435.4 215.2" style="enable-background:new 0 0 435.4 215.2;" xml:space="preserve">
<style type="text/css">
	.st0{fill:none;stroke:#000000;stroke-width:2;stroke-miterlimit:10;}
	.st1{fill:#F9C319;}
	.st2{fill:#FFFFFF;}
	.st3{fill:#F75219;}
	.st4{fill:#1741DD;}
	.st5{fill:#F73131;}
	.st6{fill:#680000;}
	.st7{fill:none;stroke:#000000;stroke-width:4;stroke-miterlimit:10;}
	.st8{fill:#FCD132;}
	.st9{fill:none;stroke:#FFFFFF;stroke-width:2.2388;stroke-miterlimit:10;}
</style>
<g id="Personal_Character">
</g>
<g id="Sketch">
	<g>
		<ellipse class="st4" cx="217.7" cy="107.6" rx="217.7" ry="107.6"/>
		<g>
			<path class="st2" d="M128.3,102.3c0,0.3,0.3,0.3,0.6,0c1.2-3.3,3.3-7.4,9-7.4c7.1,0,7.4,6.9,7.4,11.6v14.9l2.9,3.6h-13.9v-16.3
				c0-2.4-1.2-3.6-3-3.6c-1.5,0-3,1.5-3,1.5v14.9l3,3.6h-16.9l3.3-3.6V86.8l-3.3-2.9h13.9V102.3z"/>
			<path class="st2" d="M184.8,110.1c0,8.5-6.8,15.3-15.1,15.3c-8.3,0-15.1-6.8-15.1-15.3c0-8.3,6.8-15.1,15.1-15.1
				c6.8,0,12.1,2.4,14.5,9.2h-19.5c-0.3,0.6-0.3,1.5-0.3,2.1c0,5.9,4.5,10.3,10.4,10.3c4.7,0,8.8-3.5,9.7-8
				C184.8,109.2,184.8,109.8,184.8,110.1z M165,103h9.4c0.6,0-0.9-6.4-3.6-6.4C168,96.6,165.3,101.8,165,103z"/>
			<path class="st2" d="M194.4,121.4V87.2l-3.2-3.3h14.2v37.5l2.9,3.5h-16.8L194.4,121.4z"/>
			<path class="st2" d="M218,121.4V87.2l-3.2-3.3h14.2v37.5l2.9,3.5h-16.8L218,121.4z"/>
			<path class="st2" d="M270.7,110.3c0,8.9-6.9,15.2-15.5,15.2c-9.1,0-16.3-6.9-16.3-15.2c0-8.3,7.2-15.2,16.3-15.2
				C264.1,95,270.7,101.4,270.7,110.3z M259.8,110.3c0-8-2.3-14.3-4.9-14.3c-2.3,0-4.6,6.3-4.6,14.3c0,7.7,2.3,14.3,4.6,14.3
				C257.5,124.6,259.8,118,259.8,110.3z"/>
			<path class="st2" d="M309.2,124.9c-3.5,0-6.1-2.7-6.1-5.9c0-3.5,2.7-5.9,6.1-5.9c3.2,0,5.9,2.4,5.9,5.9
				C315.1,122.2,312.5,124.9,309.2,124.9z M309.2,107.5c-3.6,0-6-3-6-6c0-3.6,2.4-6,6-6c3.3,0,6,2.4,6,6
				C315.2,104.5,312.5,107.5,309.2,107.5z"/>
			<path class="st2" d="M324.8,89.8c9,1.4,16,10.2,16,20.6c0,10.4-7,19-16,20.4c4.2-1.4,7.4-10,7.4-20.4
				C332.3,100,329,91.2,324.8,89.8z"/>
		</g>
	</g>
</g>
</svg>
