<?xml version="1.0" encoding="utf-8"?>
<!-- Generator: Adobe Illustrator 22.0.1, SVG Export Plug-In . SVG Version: 6.00 Build 0)  -->
<svg version="1.1" xmlns="http://www.w3.org/2000/svg" xmlns:xlink="http://www.w3.org/1999/xlink" x="0px" y="0px"
	 viewBox="0 0 335.6 319.1" style="enable-background:new 0 0 335.6 319.1;" xml:space="preserve">
<style type="text/css">
	.st0{fill:none;stroke:#000000;stroke-width:2;stroke-miterlimit:10;}
	.st1{fill:#F9C319;}
	.st2{fill:#FFFFFF;}
	.st3{fill:#F75219;}
	.st4{fill:#1741DD;}
	.st5{fill:#F73131;}
	.st6{fill:#FCD132;}
	.st7{fill:#680000;}
	.st8{fill:none;stroke:#000000;stroke-width:4;stroke-miterlimit:10;}
	.st9{fill:none;stroke:#FFFFFF;stroke-width:2.2388;stroke-miterlimit:10;}
</style>
<g id="Personal_Character">
</g>
<g id="Sketch">
	<g>
		<g>
			<g>
				<path d="M333.2,222.1c-3.1,13.7-20.8,27-42.8,20.1c16.9,15.7,14.2,37.6,3.9,47.1c-16.3,15.2-36.7,15.8-51.9-0.5
					c-5.9-6.3-11.1-20.1-15.2-34.5c-0.3-1.2-0.7-2.3-1.1-3.4c-5.8-17-15.8-34.7-31.1-44.6l-10.8-6.6l0,0.1h-5.8v101.1h0l14.3,18.2
					h-50.8l14.3-18.2h0V199.8h-5.2l0-0.1l-10.8,6.6c-15.3,9.9-25.3,27.7-31.1,44.6c-0.4,1.1-0.8,2.3-1.1,3.4
					c-4.1,14.4-9.3,28.2-15.2,34.5c-15.2,16.3-35.6,15.7-51.9,0.5c-10.3-9.5-13-31.4,4-47.1c-22,6.9-39.6-6.5-42.8-20.1
					c-5-21.7,4.7-39.7,26.4-44.7c8.4-1.9,23,0.5,37.5,4.1c1.2,0.3,2.4,0.5,3.5,0.8c17.6,3.5,38,3.7,54.2-4.6l11.1-6l0.7-0.4
					l-0.7-0.4l-11.1-6.1c-16.2-8.3-36.6-8.1-54.2-4.6c-1.2,0.2-2.4,0.5-3.5,0.8c-14.5,3.6-29.1,6.1-37.5,4.1
					c-21.7-5-31.4-23-26.4-44.7c3.2-13.7,20.8-27,42.8-20.1c-16.9-15.7-14.2-37.6-4-47.1C57.6,37.9,78,37.3,93.2,53.6
					c5.9,6.3,11.1,20.1,15.2,34.5c0.3,1.2,0.7,2.3,1.1,3.5c5.8,17,15.8,34.7,31.1,44.6l10.8,6.6l0-0.1h0l-0.3-13.5
					c-0.9-18.2-11.3-35.7-23.1-49.2c-0.8-0.9-1.6-1.8-2.4-2.7c-10.4-10.7-19.8-22.1-22.3-30.4c-6.5-21.3,4.2-38.7,25.5-45.2
					c13.4-4.1,33.7,4.5,38.8,27c5.1-22.5,25.4-31.1,38.8-27c21.3,6.5,32,23.9,25.5,45.2c-2.5,8.3-11.9,19.7-22.3,30.4
					c-0.8,0.9-1.7,1.8-2.4,2.7c-11.8,13.5-22.2,31.1-23.1,49.2l-0.3,13.5h0.6l0,0.1l10.8-6.6c15.2-9.9,25.3-27.7,31.1-44.6
					c0.4-1.1,0.8-2.3,1.1-3.5c4.1-14.4,9.3-28.2,15.2-34.5c15.2-16.3,35.6-15.7,51.9-0.5c10.3,9.6,13,31.4-3.9,47.1
					c22-6.9,39.6,6.5,42.8,20.1c5,21.7-4.6,39.7-26.4,44.7c-8.4,1.9-23-0.5-37.5-4.1c-1.2-0.3-2.4-0.6-3.5-0.8
					c-17.6-3.5-38-3.7-54.2,4.6l-11.1,6.1l-0.7,0.4l0.7,0.4l11.1,6c16.2,8.3,36.6,8.1,54.2,4.6c1.2-0.2,2.4-0.5,3.5-0.8
					c14.5-3.6,29.1-6.1,37.5-4.1C328.5,182.4,338.2,200.4,333.2,222.1z"/>
			</g>
		</g>
		<polygon points="135.1,170.8 135.9,171.2 135.1,171.7 134.9,171.2 		"/>
		<polygon points="200.8,171.2 200.5,171.7 199.8,171.2 200.5,170.8 		"/>
	</g>
</g>
</svg>
