<?xml version="1.0" encoding="utf-8"?>
<!-- Generator: Adobe Illustrator 22.0.1, SVG Export Plug-In . SVG Version: 6.00 Build 0)  -->
<svg version="1.1" xmlns="http://www.w3.org/2000/svg" xmlns:xlink="http://www.w3.org/1999/xlink" x="0px" y="0px"
	 viewBox="0 0 413.5 413.5" style="enable-background:new 0 0 413.5 413.5;" xml:space="preserve">
<style type="text/css">
	.st0{fill:none;stroke:#000000;stroke-width:2;stroke-miterlimit:10;}
	.st1{fill:#F9C319;}
	.st2{fill:#FFFFFF;}
	.st3{fill:#F75219;}
	.st4{fill:#1741DD;}
	.st5{fill:#F73131;}
	.st6{fill:#680000;}
	.st7{fill:none;stroke:#000000;stroke-width:4;stroke-miterlimit:10;}
	.st8{fill:#FCD132;}
	.st9{fill:none;stroke:#FFFFFF;stroke-width:2.2388;stroke-miterlimit:10;}
</style>
<g id="Personal_Character">
</g>
<g id="Sketch">
	<g>
		<polygon class="st3" points="206.8,0 246.3,111.3 353,60.6 302.3,167.2 413.5,206.8 302.3,246.3 353,353 246.3,302.3 206.8,413.5 
			167.2,302.3 60.6,353 111.3,246.3 0,206.8 111.3,167.2 60.6,60.6 167.2,111.3 		"/>
		<g>
			<g>
				<g>
					<path class="st2" d="M244.6,284.1c-5.5,3.5-15.7,2-20.6-7.4c0.4,10.7-7.7,17-14.2,16.8c-10.3-0.4-17.2-6.8-16.9-17.2
						c0.1-4,3-10.2,6.4-16.3c0.3-0.5,0.5-1,0.8-1.5c3.7-7.5,6.2-16.6,4.5-24.8l-1.4-5.7l0,0l-1.9-1.9L168,259.2l0,0l-1.3,10.7
						l-16.7-16.7l10.7-1.3l0,0l33.2-33.2l-1.7-1.7l0,0l-5.7-1.4c-8.3-1.8-17.4,0.8-24.8,4.5c-0.5,0.2-1,0.5-1.5,0.8
						c-6.1,3.4-12.3,6.2-16.3,6.3c-10.3,0.4-16.8-6.5-17.2-16.9c-0.2-6.5,6.1-14.6,16.8-14.2c-9.5-5-10.9-15.1-7.4-20.6
						c5.5-8.8,14.6-11.5,23.3-6c3.4,2.1,7.4,7.7,11,13.7c0.3,0.5,0.6,1,0.9,1.4c4.6,6.9,11.2,13.7,19.3,16.3l5.6,1.7l0.4,0.1
						l-0.1-0.4l-1.7-5.6c-2.6-8-9.3-14.7-16.3-19.3c-0.5-0.3-0.9-0.6-1.4-0.9c-6-3.6-11.5-7.5-13.7-11c-5.5-8.8-2.8-17.8,6-23.3
						c5.5-3.5,15.7-2,20.6,7.4c-0.4-10.7,7.7-17,14.2-16.8c10.4,0.4,17.2,6.9,16.9,17.2c-0.1,4-3,10.2-6.3,16.3
						c-0.3,0.5-0.5,1-0.8,1.5c-3.7,7.5-6.2,16.6-4.4,24.8l1.4,5.7l0,0l0,0l4.3-4.5c5.7-6.3,8-15.4,8.6-23.7c0-0.6,0.1-1.1,0.1-1.7
						c0.1-6.9,0.8-13.8,2.7-17.3c4.9-9.1,14.1-11.3,23.2-6.5c5.7,3,9.6,12.5,3.9,21.6c9-5.7,18.5-1.9,21.6,3.9
						c4.9,9.1,2.7,18.3-6.5,23.2c-3.5,1.9-10.4,2.5-17.3,2.7c-0.6,0-1.1,0-1.7,0.1c-8.3,0.5-17.5,2.9-23.7,8.6l-4.5,4.3l0.2,0.2l0,0
						l5.7,1.4c8.2,1.8,17.4-0.8,24.8-4.4c0.5-0.2,1-0.5,1.5-0.8c6.1-3.4,12.3-6.2,16.3-6.4c10.3-0.4,16.8,6.5,17.2,16.9
						c0.2,6.5-6.1,14.6-16.8,14.2c9.5,5,10.9,15.1,7.4,20.6c-5.5,8.8-14.5,11.5-23.3,6c-3.4-2.1-7.4-7.7-10.9-13.6
						c-0.3-0.5-0.6-1-0.9-1.4c-4.6-6.9-11.2-13.7-19.3-16.3l-5.6-1.7l-0.4-0.1l0.1,0.4l1.7,5.6c2.6,8,9.3,14.7,16.3,19.3
						c0.5,0.3,0.9,0.6,1.4,0.9c6,3.6,11.5,7.5,13.6,10.9C256.1,269.6,253.4,278.6,244.6,284.1z"/>
				</g>
			</g>
			<polygon class="st2" points="196.4,202.3 196.5,202.7 196.2,202.6 196.2,202.4 			"/>
			<polygon class="st2" points="217.8,224 217.6,224.1 217.5,223.7 217.9,223.8 			"/>
		</g>
	</g>
</g>
</svg>
