<svg xmlns="http://www.w3.org/2000/svg" viewBox="0 0 1255.13 418.69"><title>Personal Branding - Logo Developement</title><g id="Sketch"><path d="M1156,421c-3.17,2-7.13-.79-3.57-3.56,57.79-41.17,92.22-126.66,92.22-207.4S1207.8,46.22,1150,5.06c-3.17-2.77.39-5.94,4-3.56,60.16,41.16,102.9,125.07,102.9,208.58S1216.51,379.88,1156,421Z"/><path d="M-1.76,210.08C-1.76,126.57,41,42.66,101.15,1.5c3.56-2.38,7.12.79,4,3.56-57.79,41.16-94.6,124.28-94.6,205S45,376.31,102.73,417.48c3.56,2.77-.39,5.54-3.56,3.56C38.61,379.88-1.76,293.59-1.76,210.08Z"/><path d="M333.21,303.51v45H178.33l.19-235.39-.19-21.94V66.26h29.59s0,33.47,0,46.86V343.49h33.84C283,343.49,313.5,324.71,331,302Z"/><path d="M404,338.65a19.33,19.33,0,0,0,13.24,4.65v5.21H358.69V343.3a20,20,0,0,0,13.41-4.65q5.46-4.65,5.46-17.29V207.56c-.52-21,19.54-15.61,19.54-19.43,0-4.78-33.11-2.52-38.41-2.52v-5.2h40.05v141Q398.74,334,404,338.65Z"/><path d="M444,331.77c21.94-30.12,70.66-106,68.8-136.84-.38-6.32-4.09-13.39-11.9-15.62-10.42,2.6-29,14.5-43.51,30.12l-2.6-2.6C468.55,193.44,492,173.36,515,160.35c17.48-9.67,26.4,21.94,27.14,34.21,1.49,19.33-17.85,52.43-31.6,76.6,42.76-54.29,107.46-106,133.12-113.42,23.06,5.21,22.68,31.61-16.36,97.06C614,278.6,598.71,301.28,599.45,315c.37,6.32,3.35,12.64,10.78,14.87,11.9-4.09,31.24-17.47,45-31.6l2.23,2.6c-13.76,13.39-34.21,32.35-57.64,46.48-3.72,2.23-14.87,1.12-16.73-.37-9.3-7.07-13.76-21.94-14.13-29.38-1.12-15.24,20.45-46.11,33.46-68.42,31.24-53.55,29.75-64.33,21.2-72.51-21.94,6.69-80,52.06-122.34,113.79-9.94,14.91-21,33.26-29.11,46.76a21.43,21.43,0,0,1-21.3,10.35C444.57,346.69,440,343.05,444,331.77Z"/><path d="M870.4,345.15c-12.64.38-17.86-1.1-17.86-15.23V234.35c0-58.39-27.14-75.49-60.61-75.49-28.25,0-49.44,14.88-68,39.78V48.78c0-1.85-2.09-5.57-6.69-2.6-12.64,7.07-26.4,13.39-45,16.74a26.57,26.57,0,0,1,0,3.34c18.58-3.34,23.78-3,23.78,29v209c0,36.45-.76,40.1-16.73,40.9a.53.53,0,0,0-.19,0v3.29a.62.62,0,0,0,.19,0c10.79,0,30.12-.73,35.71-.73,5.94,0,28.57.73,31.59.73v-3.35H723.88v-142C741,180.06,756.62,170,779.67,170c22.68,0,44.62,14.49,44.62,60.61V305c0,39.42-3,40.15-19.7,40.15a1.33,1.33,0,0,0-.41,0v3.28a1.76,1.76,0,0,0,.41,0c10.77,0,27.14-.73,32.72-.73,5.94,0,30.11.73,33.09.73l.54,0v-3.28A4.73,4.73,0,0,0,870.4,345.15Z"/><path d="M937.34,70.58l20.56.73L898.7,173.09l-2.48-2.48Z"/><path d="M1095,298.66c.41,16.51-9.21,50.6-65.66,52-58.64,1.45-83.29-31.35-89.88-55.44h28.41c7.31,17.53,22.75,45.22,61.91,44.25,29.72-.74,59.42-11.55,59-29-.47-19.44-32.13-30.75-72-46.3-2.16-.75-4.33-1.67-6.64-2.42-31.31-11.21-63.35-23.53-64-52-.4-16.36,9-51.15,63.39-51.15,60.76,0,83.86,34.48,88.06,59.41h-26.33c-1.63-5.55-12.59-46.91-63.72-46.91-21.77,0-53.51,12.45-53.51,26.63,0,18.14,28,30.24,61.09,43.51.14,0,.14,0,.28.16C1051.34,254.22,1094.24,265.79,1095,298.66Z"/><path d="M416.48,132.54c-.54,2.36-3.58,4.65-7.37,3.47,2.91,2.7,2.45,6.48.68,8.12-2.81,2.62-6.32,2.73-8.94-.08-1-1.1-1.91-3.47-2.62-6a5.8,5.8,0,0,0-.19-.59c-1-2.93-2.72-6-5.35-7.69l-1.86-1.13h-1v17.42h0l2.47,3.14h-8.75l2.47-3.14h0V128.7h-.9l-1.86,1.13c-2.63,1.7-4.36,4.76-5.35,7.69-.07.19-.13.39-.19.59-.7,2.48-1.6,4.85-2.62,6-2.61,2.81-6.12,2.7-8.94.08-1.77-1.64-2.23-5.42.69-8.12-3.8,1.18-6.83-1.11-7.38-3.47-.86-3.74.81-6.83,4.55-7.69,1.45-.34,4,.08,6.46.71l.61.13c3,.61,6.54.64,9.33-.79l1.91-1,.13-.07-.13-.08-1.91-1c-2.79-1.43-6.3-1.39-9.33-.79-.2,0-.41.08-.61.14-2.5.62-5,1-6.46.71-3.74-.87-5.41-4-4.55-7.71.55-2.35,3.58-4.65,7.38-3.47-2.92-2.69-2.46-6.47-.69-8.11,2.82-2.63,6.33-2.73,8.94.08,1,1.09,1.92,3.47,2.62,6,.06.2.12.4.19.6,1,2.92,2.72,6,5.35,7.68l1.86,1.13h0l-.05-2.32c-.16-3.14-1.94-6.16-4-8.49-.14-.15-.27-.3-.42-.45-1.79-1.86-3.41-3.82-3.84-5.24-1.13-3.68.72-6.67,4.39-7.79,2.31-.71,5.82.77,6.69,4.65.88-3.88,4.38-5.36,6.69-4.65,3.68,1.12,5.52,4.11,4.4,7.79-.44,1.42-2,3.38-3.85,5.24l-.42.45c-2,2.33-3.82,5.35-4,8.49l0,2.32h.11l1.86-1.13c2.63-1.71,4.36-4.76,5.35-7.68.07-.2.14-.4.19-.6.71-2.48,1.6-4.86,2.62-6,2.62-2.81,6.13-2.71,8.94-.08,1.77,1.64,2.23,5.42-.68,8.11,3.79-1.18,6.83,1.12,7.37,3.47.86,3.74-.8,6.84-4.55,7.71-1.45.33-4-.09-6.46-.71-.2-.06-.4-.1-.6-.14-3-.6-6.55-.64-9.34.79l-1.91,1-.13.08.13.07,1.91,1c2.79,1.43,6.31,1.4,9.34.79l.6-.13c2.5-.63,5-1,6.46-.71C415.68,125.71,417.34,128.8,416.48,132.54Z"/><polygon points="382.35 123.71 382.48 123.79 382.35 123.86 382.31 123.79 382.35 123.71"/><polygon points="393.66 123.79 393.62 123.86 393.49 123.79 393.62 123.71 393.66 123.79"/></g></svg>